<svg xmlns="http://www.w3.org/2000/svg" width="800" height="800" viewBox="0 0 800 800">
  <circle cx="400" cy="400" r="400" fill="#E3E3E3"/>
  <path fill="#A3A2A2" d="M707.6 655.7c-39.8-16.7-133.7-49.3-192.2-66.6-5-1.6-5.8-1.8-5.8-22.5 0-17.1 7-34.3 13.9-48.9 7.4-15.9 16.3-42.5 19.4-66.4 8.9-10.3 20.9-30.6 28.7-69.2 6.8-34.1 3.6-46.4-.9-58.1-.5-1.2-1-2.4-1.3-3.6-1.7-8 .6-49.5 6.4-81.7 4-22.1-1-69.1-31.4-107.9-19.2-24.5-56-54.7-123.1-58.9h-36.8c-66 4.2-102.7 34.3-121.9 58.9-30.4 38.8-35.5 85.8-31.4 107.9 5.8 32.2 8.2 73.7 6.5 81.5-.4 1.4-.9 2.6-1.4 3.8-4.5 11.7-7.7 24-.9 58.1 7.8 38.6 19.8 58.9 28.7 69.2 3.1 23.9 11.9 50.5 19.4 66.4 5.5 11.6 8 27.3 8 49.6 0 20.7-.7 21-5.4 22.4-60.3 17.8-156 52.4-191.9 68.1C167.6 744.8 277.4 800 400 800c123.7 0 234.2-56.1 307.6-144.3z"/>
</svg>